<svg t="1714095624830" class="icon" viewBox="0 0 1024 1024" version="1.1" xmlns="http://www.w3.org/2000/svg" p-id="1775" width="32" height="32"><path d="M599.493652 117.392761l210.539223 121.591466a91.498578 91.498578 0 0 1 129.358921-3.299769 92.671496 92.671496 0 0 1 16.09887 20.349572A91.552574 91.552574 0 0 1 897.73672 390.452596v243.142935a91.32559 91.32559 0 1 1-89.782699 149.45651L598.693708 903.876561a91.300592 91.300592 0 1 1-174.187774 2.943793L213.932713 785.360879a91.316591 91.316591 0 1 1-87.542856-151.857342l0.031998-243.142935a91.287593 91.287593 0 1 1 67.001297-167.759225 88.841765 88.841765 0 0 1 20.477563 16.09887l210.666214-121.591466a91.248596 91.248596 0 1 1 174.958721 0.255982z m-21.981457 37.407374a29.822907 29.822907 0 0 1-2.463827 2.463827l275.649653 477.392494c1.119921-0.383973 2.399832-0.671953 3.487755-0.99193V390.200614a91.069608 91.069608 0 0 1-66.455336-110.419251c0.255982-1.023928 0.511964-2.079854 0.799944-3.071784z m-128.626973 2.527823l-2.55982-2.55982-211.018189 121.683459a91.142603 91.142603 0 0 1-62.329626 112.853079c-1.119921 0.351975-2.175847 0.607957-3.231773 0.899937v243.522908l3.583748 0.991931 275.651654-477.391494z m88.566784 21.629482a92.155532 92.155532 0 0 1-50.842431 0L211.020917 656.317936a92.593501 92.593501 0 0 1 25.598203 44.411883h550.823341a91.512577 91.512577 0 0 1 25.725194-44.539874z m42.076047 692.282412l209.610289-121.075503c-0.639955-2.015859-1.151919-3.999719-1.631886-6.047575H236.491129l-0.899936 3.55175 210.702211 121.68346a91.412584 91.412584 0 0 1 133.234649 1.919865z" fill="#E10098" p-id="1776"></path></svg>